<svg id="visual" viewBox="0 0 900 600" width="900" height="600" xmlns="http://www.w3.org/2000/svg" xmlns:xlink="http://www.w3.org/1999/xlink" version="1.1"><path d="M0 91L82 97L164 55L245 115L327 49L409 61L491 49L573 91L655 49L736 121L818 109L900 55L900 0L818 0L736 0L655 0L573 0L491 0L409 0L327 0L245 0L164 0L82 0L0 0Z" fill="#00cc8e"></path><path d="M0 169L82 193L164 121L245 163L327 103L409 115L491 139L573 127L655 133L736 199L818 205L900 91L900 53L818 107L736 119L655 47L573 89L491 47L409 59L327 47L245 113L164 53L82 95L0 89Z" fill="#00b98a"></path><path d="M0 259L82 265L164 205L245 319L327 283L409 223L491 211L573 283L655 199L736 283L818 343L900 217L900 89L818 203L736 197L655 131L573 125L491 137L409 113L327 101L245 161L164 119L82 191L0 167Z" fill="#00a784"></path><path d="M0 391L82 355L164 475L245 523L327 421L409 445L491 337L573 391L655 325L736 391L818 469L900 355L900 215L818 341L736 281L655 197L573 281L491 209L409 221L327 281L245 317L164 203L82 263L0 257Z" fill="#00957c"></path><path d="M0 601L82 601L164 601L245 601L327 601L409 601L491 601L573 601L655 601L736 601L818 601L900 601L900 353L818 467L736 389L655 323L573 389L491 335L409 443L327 419L245 521L164 473L82 353L0 389Z" fill="#038373"></path></svg>